<svg xmlns="http://www.w3.org/2000/svg" width="197.887" height="192.837" viewBox="0 0 197.887 192.837">
  <defs>
    <style>
      .cls-1 {
        fill: #b939d1;
      }

      .cls-2 {
        fill: #763b7d;
      }

      .cls-3 {
        fill: none;
        stroke-width: 18px;
      }

      .cls-3, .cls-4 {
        stroke: #000;
      }

      .cls-4 {
        stroke-linecap: round;
        stroke-width: 3px;
      }

      .cls-5 {
        fill: #fff;
      }
    </style>
  </defs>
  <g id="Logo" transform="translate(-187.499 -182.44)">
    <g id="Group_11" data-name="Group 11" transform="translate(201.37 191.44)">
      <ellipse id="Ellipse_1" data-name="Ellipse 1" class="cls-1" cx="87.5" cy="89.5" rx="87.5" ry="89.5" transform="translate(3.68 -0.37)"/>
      <g id="Group_10" data-name="Group 10" transform="translate(8.71 23.476)">
        <g id="Group_9" data-name="Group 9">
          <path id="Path_5" data-name="Path 5" class="cls-2" d="M214.18,241.139l1.7,27.709v48.619s30.555,44.907,34.831,45.289-12.25-31.429-17.725-43.76,13.058-26.328,19.688-35.4,13.348-15.912,20.155-20.529l-12.92-10.091,28.92,4.066,34.489,10.445q-7.109-19.92-13.484-30.116t-12.015-10.682a225.469,225.469,0,0,0-36.182,0q-15.85,1.438-27.226,5.78Z" transform="translate(-211.18 -224.965)"/>
        </g>
      </g>
      <g id="Group_2" data-name="Group 2">
        <g id="Group_1" data-name="Group 1">
          <path id="Path_1" data-name="Path 1" class="cls-3" d="M204.24,238.978q.775-1.224,1.632-2.557c.857-1.34,1.013-1.68,1.788-2.8a14.144,14.144,0,0,1,1.326-1.673A8.912,8.912,0,0,1,210,230.5a5.2,5.2,0,0,1,1.088-.959l.857-.877q1.244-1.316,2.414-2.638c.775-.877,1.537-1.754,2.271-2.632l2.863-2.557,3.169-2.8,2.958-2.475,3.373-2.557,4.331-2.951,4.9-3.04,4.753-2.795,3.577-1.918,3.658-1.754,3.74-1.6L257.06,198l4.359-1.523,4.209-1.278,3.808-1.034,3.767-.959,4.1-.8,4.359-.558,4.359-.4h7.255l4.277.4,3.658.558,4.359.8,4.828,1.353,3.584,1.122,4.665,1.6,3.658,1.68,4.828,2.557,4.828,2.951,4.359,3.278,4.2,3.2,4.2,3.516,4.794,4.311,3.346,3.434,3.658,4.08,2.958,4.229,2.339,3.114,2.1,3.277,2.1,3.516,1.788,3.754,2.026,4.556,1.714,4.712,1.006,4.631.938,5.6,1.013,6.229.857,7.194.544,5.991.231,5.27.231,5.351-.462,5.834-.544,5.032-.857,5.991-1.251,5.6-1.707,5.827-2.414,5.515L366.49,332.6l-3.2,4.631-3.815,4.474-4.026,3.957-4.046,3.2-4.515,3.352-4.828,2.713-4.977,2.876-5.759,2.237-6.072,2.557-4.828,1.278-5.6,1.122-5.759.8-5.2.483H291.413l-6.378-.8-6.072-1.115-5.759-1.278-7.317-2.237-7.942-3.04-8.248-3.835-7.16-4.311-6.847-4.95a80.66,80.66,0,0,1-6.7-6.072c-3.189-3.237-3.271-2.917-6.072-6.875s-2.72-4.114-5.134-8.942a67.2,67.2,0,0,1-4.515-10.39,84.41,84.41,0,0,1-3.89-12.457q-1.326-5.243-2.23-10.846a32.366,32.366,0,0,1-.422-5.188v-.245a48.262,48.262,0,0,1,2.591-15.592q1.459-4.284,7.31-21.419l-15.259-2.237Z" transform="translate(-201.37 -191.44)"/>
        </g>
      </g>
      <g id="Group_4" data-name="Group 4" transform="translate(44.612 50.489)">
        <g id="Group_3" data-name="Group 3">
          <path id="Path_2" data-name="Path 2" class="cls-4" d="M277.662,265.69c9.479,2.468,19.685,6.446,30.606,10.914s22.208,9.758,33.843,15.878l25.975-20.671a54.747,54.747,0,0,1,4.76,8.7,45.483,45.483,0,0,1,3.672,10.472,56.889,56.889,0,0,1,2.312,12.648c.646,6.528.442,6.6.272,13.464s.2,7.786-.952,14.008-.068,5.3-3.672,10.88-5.61,6.8-10.744,11.424-4.25,3.944-9.792,7.072-5.746,3.978-12.376,5.44-6.426.782-14.144.408-8.738-.238-16.728-1.9-8.194-1.87-15.232-4.76-6.936-2.89-12.92-6.8a72.056,72.056,0,0,1-11.016-8.84,40.86,40.86,0,0,1-4.216-23.935q1.561-12.413,22.711-44.063L277.662,265.69" transform="translate(-266.977 -265.69)"/>
        </g>
      </g>
      <g id="Group_6" data-name="Group 6" transform="translate(79.531 91.403)">
        <g id="Group_5" data-name="Group 5">
          <path id="Path_3" data-name="Path 3" class="cls-5" d="M319.806,337.257a32.921,32.921,0,0,0,2.768,6.868,6.552,6.552,0,0,0,5.283,3.414,44.759,44.759,0,0,0,8.867-.258,60.8,60.8,0,0,0,13.056-3.23A132.749,132.749,0,0,1,333.317,336,127.89,127.89,0,0,1,318.33,325.86,42.11,42.11,0,0,0,319.806,337.257Z" transform="translate(-318.33 -325.86)"/>
        </g>
      </g>
      <g id="Group_8" data-name="Group 8" transform="translate(127.864 89.397)">
        <g id="Group_7" data-name="Group 7">
          <path id="Path_4" data-name="Path 4" class="cls-5" d="M398.372,341.025c2.686-.381,4.46-.2,6.469-2.463s1.568-3.909,1.568-6.588a51.7,51.7,0,0,0-.911-9.064,57.68,57.68,0,0,1-6.773,9.424,79.246,79.246,0,0,1-9.316,8.935A44.563,44.563,0,0,0,398.372,341.025Z" transform="translate(-389.41 -322.91)"/>
        </g>
      </g>
    </g>
  </g>
</svg>
