<svg xmlns="http://www.w3.org/2000/svg" width="85" height="100.004" viewBox="0 0 85 100.004">
  <g id="Group_60" data-name="Group 60" transform="translate(-59 -341.996)">
    <g id="Group_4" data-name="Group 4" transform="translate(0 280)">
      <path id="Path_9" data-name="Path 9" d="M10,0,50.081,0,80,30V90a10,10,0,0,1-10,10H10A10,10,0,0,1,0,90V10A10,10,0,0,1,10,0Z" transform="translate(64 62)" fill="#fff"/>
      <path id="Path_9_-_Outline" data-name="Path 9 - Outline" d="M49.251,2,10,2a8.009,8.009,0,0,0-8,8V90a8.009,8.009,0,0,0,8,8H70a8.009,8.009,0,0,0,8-8V30.83L49.251,2m.83-2L80,30V90a10,10,0,0,1-10,10H10A10,10,0,0,1,0,90V10A10,10,0,0,1,10,0Z" transform="translate(64 62)" fill="#e35959"/>
      <path id="Path_10" data-name="Path 10" d="M0,0,30.647,30.835H0V0Z" transform="translate(113.353 62)" fill="#e35959"/>
    </g>
    <text id="SVG" transform="translate(71 415)" fill="#fff" font-size="20" font-family="Dubai-Medium, Dubai" font-weight="500"><tspan x="0" y="0">SVG</tspan></text>
    <text id="SVG-2" data-name="SVG" transform="translate(71 415)" fill="#fff" font-size="20" font-family="Dubai-Medium, Dubai" font-weight="500"><tspan x="0" y="0">SVG</tspan></text>
    <rect id="Rectangle_18" data-name="Rectangle 18" width="60" height="30" rx="5" transform="translate(59 393)" fill="#e35959"/>
    <text id="AUD" transform="translate(69 415)" fill="#fff" font-size="20" font-family="Dubai-Medium, Dubai" font-weight="500"><tspan x="0" y="0">AUD</tspan></text>
  </g>
</svg>
